<svg width="512" height="512" viewBox="0 0 512 512" fill="none" xmlns="http://www.w3.org/2000/svg">
  <!-- Outer circle with white background -->
  <circle cx="256" cy="256" r="256" fill="white"/>
  
  <!-- Bulldog face -->
  <path fill-rule="evenodd" clip-rule="evenodd" d="M256 384c70.692 0 128-57.308 128-128 0-70.692-57.308-128-128-128-70.692 0-128 57.308-128 128 0 70.692 57.308 128 128 128zM160 220c0-8.837 7.163-16 16-16h160c8.837 0 16 7.163 16 16v32c0 8.837-7.163 16-16 16H176c-8.837 0-16-7.163-16-16v-32z" fill="black"/>
  
  <!-- Eyes -->
  <path d="M200 200c13.255 0 24 10.745 24 24s-10.745 24-24 24-24-10.745-24-24 10.745-24 24-24z" fill="white"/>
  <path d="M312 200c13.255 0 24 10.745 24 24s-10.745 24-24 24-24-10.745-24-24 10.745-24 24-24z" fill="white"/>
  
  <!-- Eyebrows -->
  <path d="M180 180l40 10M292 180l40 10" stroke="black" stroke-width="8" stroke-linecap="round"/>
  
  <!-- Nose -->
  <path d="M256 260c8.837 0 16 7.163 16 16s-7.163 16-16 16-16-7.163-16-16 7.163-16 16-16z" fill="black"/>
  
  <!-- Mouth and teeth -->
  <path d="M200 290h112c8.837 0 16 7.163 16 16v16c0 8.837-7.163 16-16 16H200c-8.837 0-16-7.163-16-16v-16c0-8.837 7.163-16 16-16z" fill="black"/>
  <path d="M210 290v38M230 290v38M250 290v38M270 290v38M290 290v38M310 290v38" stroke="white" stroke-width="4"/>
</svg>
